<svg width="32" height="36" viewBox="0 0 32 36" fill="none" xmlns="http://www.w3.org/2000/svg">
<path d="M11.7578 35.8438C8.25781 35.8438 5.52344 34.8125 3.55469 32.75C1.58594 30.6875 0.601562 28.3984 0.601562 25.8828C0.601562 23.8047 1.11719 22.0234 2.14844 20.5391C3.17969 19.0547 4.86719 17.5859 7.21094 16.1328L7.9375 15.6875C6.9375 14.5625 6.16406 13.4141 5.61719 12.2422C5.07031 11.0703 4.79688 9.85156 4.79688 8.58594C4.79688 6.07031 5.64062 4.10938 7.32812 2.70312C9.01562 1.28125 11.2031 0.570312 13.8906 0.570312C16.3438 0.570312 18.3672 1.29688 19.9609 2.75C21.5703 4.1875 22.375 6.03125 22.375 8.28125C22.375 10.3125 21.8906 11.9609 20.9219 13.2266C19.9688 14.4922 18.5625 15.6641 16.7031 16.7422L21.6016 22.7891C22.1641 21.9766 22.5938 21.0938 22.8906 20.1406C23.2031 19.1875 23.3672 18.1797 23.3828 17.1172H29.3125C29.2188 19.2109 28.7188 21.3281 27.8125 23.4688C27.3125 24.6719 26.5 26 25.375 27.4531L31.6562 35H23.5469L21.1562 32.0703C20 33.1484 18.9219 33.9453 17.9219 34.4609C16.1406 35.3828 14.0859 35.8438 11.7578 35.8438ZM11.3828 19.9531C9.71094 21.0625 8.60156 22.0391 8.05469 22.8828C7.52344 23.7266 7.25781 24.6562 7.25781 25.6719C7.25781 26.8125 7.71875 27.8594 8.64062 28.8125C9.57812 29.7656 10.7734 30.2422 12.2266 30.2422C13.3203 30.2422 14.3516 29.9922 15.3203 29.4922C16.3047 28.9766 17.1016 28.4062 17.7109 27.7812L11.3828 19.9531ZM10.9375 8.35156C10.9375 8.97656 11.1562 9.63281 11.5938 10.3203C11.875 10.7734 12.4844 11.5781 13.4219 12.7344C14.3594 12.0781 15.0312 11.5234 15.4375 11.0703C16.2188 10.2266 16.6094 9.3125 16.6094 8.32812C16.6094 7.60938 16.375 6.96875 15.9062 6.40625C15.4375 5.84375 14.7266 5.5625 13.7734 5.5625C13.1797 5.5625 12.625 5.72656 12.1094 6.05469C11.3281 6.53906 10.9375 7.30469 10.9375 8.35156Z" fill="#347033"/>
</svg>
