<svg width="261" height="163" viewBox="0 0 261 163" fill="none" xmlns="http://www.w3.org/2000/svg">
<path d="M215.919 56.9133L215.823 57.4196L216.332 57.4999C241.351 61.4456 260.5 83.3023 260.5 109.682C260.5 138.857 237.078 162.5 208.197 162.5H52.8035C23.9214 162.5 0.5 138.857 0.5 109.682C0.5 80.5066 23.9214 56.864 52.8035 56.864H52.8094H53.3018L53.3093 56.3717C53.7081 30.4895 74.6102 9.6402 100.327 9.6402C111.831 9.6402 122.369 13.8114 130.542 20.7389L130.961 21.0939L131.275 20.6438C139.788 8.45642 153.837 0.5 169.725 0.5C195.691 0.5 216.749 21.7557 216.749 47.986C216.749 51.0378 216.464 54.0218 215.919 56.9133Z" stroke="#347033"/>
</svg>
