<svg width="64" height="40" viewBox="0 0 64 40" fill="none" xmlns="http://www.w3.org/2000/svg">
<path fill-rule="evenodd" clip-rule="evenodd" d="M64 20C64 20 49.6732 40 32 40C14.3269 40 0 20 0 20C0 20 14.3269 0 32 0C49.6732 0 64 20 64 20ZM46.605 20C46.605 28.0364 40.0663 34.5513 32 34.5513C23.9337 34.5513 17.3949 28.0364 17.3949 20C17.3949 11.9636 23.9337 5.44864 32 5.44864C40.0663 5.44864 46.605 11.9636 46.605 20ZM32 28.3383C36.6223 28.3383 40.3692 24.6051 40.3692 20C40.3692 15.3949 36.6223 11.6617 32 11.6617C27.3777 11.6617 23.6308 15.3949 23.6308 20C23.6308 24.6051 27.3777 28.3383 32 28.3383Z" fill="#347033"/>
</svg>
