<svg width="99" height="206" viewBox="0 0 99 206" fill="none" xmlns="http://www.w3.org/2000/svg">
<path d="M62.8806 2C29.257 2 2 12.1107 2 24.583C2 37.0552 29.257 47.166 62.8806 47.166C81.7242 47.166 97 42.886 97 37.6063C97 32.3266 81.7242 28.0466 62.8806 28.0466C29.257 28.0466 2 38.1574 2 50.6296C2 63.1019 29.257 73.2129 62.8806 73.2129C81.7242 73.2129 97 68.9328 97 63.6529C97 58.3733 81.7242 54.0933 62.8806 54.0933C29.257 54.0933 2 64.2661 2 76.8148C2 89.3634 29.257 99.5366 62.8806 99.5366C81.7242 99.5366 97 95.2564 97 89.9766C97 84.6967 81.7242 80.4173 62.8806 80.4173C29.257 80.4173 2 90.5277 2 103C2 115.472 29.257 125.583 62.8806 125.583C81.7242 125.583 97 121.303 97 116.023C97 110.744 81.7242 106.463 62.8806 106.463C29.257 106.463 2 116.575 2 129.047C2 141.519 29.257 151.63 62.8806 151.63C81.7242 151.63 97 147.349 97 142.07C97 136.79 81.7242 132.51 62.8806 132.51C29.257 132.51 2 142.621 2 155.093C2 167.565 29.257 177.676 62.8806 177.676C81.7242 177.676 97 173.396 97 168.116C97 162.837 81.7242 158.557 62.8806 158.557C29.257 158.557 2 168.73 2 181.278C2 193.827 29.257 204 62.8806 204" stroke="#347033" stroke-width="3" stroke-linecap="round"/>
</svg>
