<svg width="104" height="107" viewBox="0 0 104 107" fill="none" xmlns="http://www.w3.org/2000/svg">
<path d="M60.4551 17.8968L74.4851 6.3652L74.301 24.6337L74.2946 25.2752L74.9183 25.1248L92.5203 20.8788L84.4994 37.2633L84.2195 37.835L84.8412 37.9715L102.532 41.8568L88.2605 53.1073L87.7624 53.5L88.2605 53.8927L102.532 65.1432L84.8412 69.0285L84.2195 69.165L84.4994 69.7367L92.5203 86.1212L74.9183 81.8753L74.2946 81.7248L74.301 82.3663L74.4851 100.635L60.4551 89.1032L59.9563 88.6932L59.6842 89.2787L52 105.814L44.3158 89.2787L44.0437 88.6932L43.5449 89.1032L29.5149 100.635L29.699 82.3663L29.7054 81.7248L29.0817 81.8753L11.4797 86.1212L19.5006 69.7367L19.7805 69.165L19.1588 69.0285L1.46834 65.1432L15.7395 53.8927L16.2376 53.5L15.7395 53.1073L1.46835 41.8568L19.1588 37.9715L19.7805 37.835L19.5006 37.2633L11.4797 20.8788L29.0817 25.1248L29.7054 25.2752L29.699 24.6337L29.5149 6.3652L43.5449 17.8968L44.0437 18.3068L44.3158 17.7213L52 1.18641L59.6842 17.7213L59.9563 18.3068L60.4551 17.8968Z" stroke="#347033"/>
</svg>
