<svg width="19" height="22" viewBox="0 0 19 22" fill="none" xmlns="http://www.w3.org/2000/svg">
<path d="M6.82566 22C4.68428 22 3.01132 21.3568 1.80679 20.0704C0.602264 18.7841 0 17.3564 0 15.7874C0 14.4913 0.315472 13.3803 0.946415 12.4545C1.57736 11.5287 2.60981 10.6126 4.04377 9.70631L4.4883 9.42857C3.87648 8.72691 3.40327 8.01063 3.06868 7.27973C2.73409 6.54884 2.56679 5.7887 2.56679 4.99934C2.56679 3.43034 3.08302 2.20731 4.11547 1.33023C5.14792 0.443411 6.48629 0 8.13057 0C9.63145 0 10.8694 0.453156 11.8445 1.35947C12.8292 2.25604 13.3215 3.40598 13.3215 4.8093C13.3215 6.07619 13.0252 7.10432 12.4325 7.89369C11.8493 8.68306 10.9889 9.41395 9.85132 10.0864L12.8483 13.8578C13.1925 13.3511 13.4553 12.8004 13.637 12.206C13.8282 11.6115 13.9286 10.9829 13.9381 10.3203H17.566C17.5087 11.6261 17.2028 12.9466 16.6483 14.2817C16.3424 15.0321 15.8453 15.8605 15.157 16.7668L19 21.4738H14.0385L12.5758 19.6465C11.8684 20.3189 11.2088 20.8159 10.597 21.1375C9.50717 21.7125 8.25006 22 6.82566 22ZM6.59623 12.089C5.57333 12.781 4.89459 13.39 4.56 13.9163C4.23497 14.4425 4.07245 15.0224 4.07245 15.6558C4.07245 16.3672 4.35447 17.0202 4.91849 17.6146C5.49208 18.2091 6.2234 18.5063 7.11245 18.5063C7.78164 18.5063 8.41258 18.3504 9.00528 18.0385C9.60755 17.7169 10.0951 17.3612 10.4679 16.9714L6.59623 12.089ZM6.32377 4.85316C6.32377 5.24297 6.45761 5.65227 6.72528 6.08106C6.89736 6.36368 7.27019 6.86556 7.84377 7.58671C8.41736 7.17741 8.82843 6.83145 9.07698 6.54884C9.55497 6.02259 9.79396 5.45249 9.79396 4.83854C9.79396 4.39025 9.65057 3.9907 9.36377 3.63987C9.07698 3.28904 8.64201 3.11362 8.05887 3.11362C7.6956 3.11362 7.35623 3.21595 7.04075 3.4206C6.56277 3.7227 6.32377 4.20022 6.32377 4.85316Z" fill="#347033"/>
</svg>
