<svg width="137" height="86" viewBox="0 0 137 86" fill="none" xmlns="http://www.w3.org/2000/svg">
<path d="M113.103 29.9846L113.008 30.4901L113.516 30.5706C126.532 32.6339 136.5 44.0653 136.5 57.869C136.5 73.1364 124.308 85.5 109.283 85.5H27.7168C12.6922 85.5 0.5 73.1364 0.5 57.869C0.5 42.6017 12.6922 30.2381 27.7168 30.2381H27.7199H28.2123L28.2198 29.7457C28.4272 16.2144 39.2977 5.32244 52.6621 5.32244C58.6411 5.32244 64.1186 7.50128 68.3673 11.1214L68.7873 11.4792L69.1022 11.0261C73.5291 4.65594 80.8325 0.5 89.0894 0.5C102.583 0.5 113.535 11.6043 113.535 25.3178C113.535 26.9133 113.387 28.4732 113.103 29.9846Z" stroke="#347033"/>
</svg>
