<svg width="38" height="24" viewBox="0 0 38 24" fill="none" xmlns="http://www.w3.org/2000/svg">
<path fill-rule="evenodd" clip-rule="evenodd" d="M38 12C38 12 29.4935 24 19 24C8.50663 24 0 12 0 12C0 12 8.50663 0 19 0C29.4935 0 38 12 38 12ZM27.6717 12C27.6717 16.8219 23.7894 20.7308 19 20.7308C14.2106 20.7308 10.3282 16.8219 10.3282 12C10.3282 7.17814 14.2106 3.26918 19 3.26918C23.7894 3.26918 27.6717 7.17814 27.6717 12ZM19 17.003C21.7445 17.003 23.9692 14.7631 23.9692 12C23.9692 9.23694 21.7445 6.99699 19 6.99699C16.2555 6.99699 14.0308 9.23694 14.0308 12C14.0308 14.7631 16.2555 17.003 19 17.003Z" fill="#347033"/>
</svg>
