<svg width="24" height="20" viewBox="0 0 24 20" fill="none" xmlns="http://www.w3.org/2000/svg">
<path d="M14.7697 18.1068C17.3845 16.2224 21.1579 13.2722 22.7304 10.9128C23.9069 9.15006 24.2898 6.96622 23.778 4.93571C22.6846 0.310399 16.6298 -1.57961 12.8582 1.51999C12.6461 1.69317 12.4506 1.88514 12.2499 2.08227C12.168 2.16273 12.0852 2.24403 12 2.32526C11.9148 2.24403 11.832 2.16271 11.7501 2.08226C11.5494 1.88514 11.3539 1.69317 11.1418 1.51999C7.37024 -1.57961 1.31542 0.310399 0.221998 4.93571C-0.289767 6.96622 0.0930208 9.15006 1.26966 10.9128C2.8421 13.2722 6.61553 16.2224 9.23035 18.1068C9.95894 18.632 12 20 12 20C12 20 14.0411 18.632 14.7697 18.1068Z" fill="#347033"/>
</svg>
