<svg width="47" height="96" viewBox="0 0 47 96" fill="none" xmlns="http://www.w3.org/2000/svg">
<path d="M29.5565 2C14.3374 2 2 6.60489 2 12.2853C2 17.9657 14.3374 22.5707 29.5565 22.5707C38.0857 22.5707 45 20.6213 45 18.2167C45 15.8121 38.0857 13.8628 29.5565 13.8628C14.3374 13.8628 2 18.4677 2 24.1481C2 29.8286 14.3374 34.4336 29.5565 34.4336C38.0857 34.4336 45 32.4842 45 30.0796C45 27.675 38.0857 25.7256 29.5565 25.7256C14.3374 25.7256 2 30.3588 2 36.074C2 41.7893 14.3374 46.4226 29.5565 46.4226C38.0857 46.4226 45 44.4732 45 42.0685C45 39.6639 38.0857 37.7148 29.5565 37.7148C14.3374 37.7148 2 42.3195 2 48C2 53.6805 14.3374 58.2852 29.5565 58.2852C38.0857 58.2852 45 56.3361 45 53.9315C45 51.5268 38.0857 49.5774 29.5565 49.5774C14.3374 49.5774 2 54.1825 2 59.8629C2 65.5434 14.3374 70.1481 29.5565 70.1481C38.0857 70.1481 45 68.1987 45 65.7944C45 63.3897 38.0857 61.4403 29.5565 61.4403C14.3374 61.4403 2 66.0454 2 71.7255C2 77.406 14.3374 82.011 29.5565 82.011C38.0857 82.011 45 80.0616 45 77.657C45 75.2526 38.0857 73.3033 29.5565 73.3033C14.3374 73.3033 2 77.9362 2 83.6515C2 89.3667 14.3374 94 29.5565 94" stroke="#347033" stroke-width="3" stroke-linecap="round"/>
</svg>
