<svg width="90" height="94" viewBox="0 0 90 94" fill="none" xmlns="http://www.w3.org/2000/svg">
<path d="M52.3826 15.7675L64.4479 5.72977L64.2896 21.6402L64.2832 22.2835L64.9082 22.1309L80.0522 18.4334L73.1466 32.7114L72.8716 33.2802L73.4883 33.4172L88.7177 36.8027L76.4281 46.6092L75.9384 47L76.4281 47.3908L88.7177 57.1973L73.4883 60.5828L72.8716 60.7198L73.1466 61.2886L80.0522 75.5666L64.9082 71.8691L64.2832 71.7165L64.2896 72.3598L64.4479 88.2702L52.3826 78.2325L51.8808 77.8151L51.6084 78.4083L45 92.8017L38.3916 78.4083L38.1192 77.8151L37.6174 78.2325L25.5521 88.2702L25.7104 72.3598L25.7168 71.7165L25.0918 71.8691L9.94779 75.5666L16.8534 61.2886L17.1284 60.7198L16.5117 60.5828L1.28233 57.1973L13.5719 47.3908L14.0616 47L13.5719 46.6092L1.28233 36.8027L16.5117 33.4172L17.1284 33.2802L16.8534 32.7114L9.94779 18.4334L25.0918 22.1309L25.7168 22.2835L25.7104 21.6402L25.5521 5.72977L37.6174 15.7675L38.1192 16.1849L38.3916 15.5917L45 1.19832L51.6084 15.5917L51.8808 16.1849L52.3826 15.7675Z" stroke="#347033"/>
</svg>
