<svg width="52" height="45" viewBox="0 0 52 45" fill="none" xmlns="http://www.w3.org/2000/svg">
<path d="M32.0009 40.7403C37.6664 36.5003 45.8421 29.8625 49.2491 24.5537C51.7984 20.5876 52.6278 15.674 51.519 11.1053C49.15 0.698397 36.0312 -3.55413 27.8595 3.41998C27.3999 3.80962 26.9763 4.24157 26.5414 4.68512C26.364 4.86613 26.1846 5.04906 26 5.23183C25.8155 5.04906 25.636 4.86611 25.4586 4.68509C25.0237 4.24157 24.6001 3.80962 24.1405 3.41998C15.9688 -3.55413 2.85008 0.698397 0.480995 11.1053C-0.627829 15.674 0.201545 20.5876 2.75092 24.5537C6.15789 29.8625 14.3336 36.5003 19.9991 40.7403C21.5777 41.9219 26 45 26 45C26 45 30.4223 41.9219 32.0009 40.7403Z" fill="#347033"/>
</svg>
